<?xml version="1.0" encoding="UTF-8" standalone="no"?>
<!-- Created with Inkscape (http://www.inkscape.org/) -->

<svg
   xmlns:dc="http://purl.org/dc/elements/1.1/"
   xmlns:cc="http://creativecommons.org/ns#"
   xmlns:rdf="http://www.w3.org/1999/02/22-rdf-syntax-ns#"
   xmlns:svg="http://www.w3.org/2000/svg"
   xmlns="http://www.w3.org/2000/svg"
   xmlns:sodipodi="http://sodipodi.sourceforge.net/DTD/sodipodi-0.dtd"
   xmlns:inkscape="http://www.inkscape.org/namespaces/inkscape"
   id="svg2"
   version="1.1"
   inkscape:version="0.91 r13725"
   xml:space="preserve"
   width="630"
   height="47.174999"
   viewBox="0 0 630 47.174999"
   sodipodi:docname="ISU.svg"><metadata
     id="metadata8"><rdf:RDF><cc:Work
         rdf:about=""><dc:format>image/svg+xml</dc:format><dc:type
           rdf:resource="http://purl.org/dc/dcmitype/StillImage" /><dc:title></dc:title></cc:Work></rdf:RDF></metadata><defs
     id="defs6" /><sodipodi:namedview
     pagecolor="#ffffff"
     bordercolor="#666666"
     borderopacity="1"
     objecttolerance="10"
     gridtolerance="10"
     guidetolerance="10"
     inkscape:pageopacity="0"
     inkscape:pageshadow="2"
     inkscape:window-width="1855"
     inkscape:window-height="1056"
     id="namedview4"
     showgrid="false"
     inkscape:zoom="0.54444444"
     inkscape:cx="315"
     inkscape:cy="23.5875"
     inkscape:window-x="1985"
     inkscape:window-y="24"
     inkscape:window-maximized="1"
     inkscape:current-layer="g10" /><g
     id="g10"
     inkscape:groupmode="layer"
     inkscape:label="ink_ext_XXXXXX"
     transform="matrix(1.25,0,0,-1.25,0,47.175)"><g
       id="g12"
       transform="scale(0.1,0.1)"
       style="fill:#ffffff"><path
         d="m 3369.55,307.672 c 0,0 38.59,-0.988 48.98,-0.988 10.38,0 54.89,1.484 54.89,1.484 l 0,-7.422 c -24.24,-3.457 -32.14,-9.891 -18.31,-43.031 l 79.65,-191.4259 77.17,207.7499 c 2.97,12.859 4.45,20.281 -19.3,26.707 l 0,6.926 c 0,0 37.11,-0.988 50.95,-0.988 17.81,0.5 39.07,0.988 39.07,0.988 l 0,-6.926 c -28.69,0 -35.1,-6.426 -49.45,-43.523 L 3526.36,0 l -8.91,0 c 0,0 -98.43,239.906 -106.85,256.234 -15.33,31.653 -14.82,41.055 -41.05,44.512 l 0,6.926"
         style="fill:#ffffff;fill-opacity:1;fill-rule:nonzero;stroke:none"
         id="path14"
         inkscape:connector-curvature="0" /><path
         d="m 34.625,251.781 0,-126.136 C 34.625,21.7695 34.625,21.7695 0,15.8281 0,6.4375 0,6.4375 0,6.4375 c 0,0 33.6328,2.46875 59.8516,2.46875 26.2148,0 59.3594,-2.46875 59.3594,-2.46875 0,0 0,0 0,9.3906 -34.629,5.9414 -34.629,5.9414 -34.629,109.8169 l 0,126.136 c 0,103.875 0,103.875 34.629,109.317 0,9.394 0,9.394 0,9.394 0,0 -33.1446,-1.484 -59.3594,-1.484 C 33.6328,369.008 0,370.492 0,370.492 c 0,0 0,0 0,-9.394 35.1172,-5.442 34.625,-5.442 34.625,-109.317 l 0,0"
         style="fill:#ffffff;fill-opacity:1;fill-rule:nonzero;stroke:none"
         id="path16"
         inkscape:connector-curvature="0" /><path
         d="m 1440.91,362.582 c 0,0 -46.5,14.84 -84.09,14.84 -70.73,0 -125.15,-50.453 -125.15,-103.383 0,-119.203 184.51,-86.07 184.51,-178.5585 0,-74.2032 -98.93,-102.40628 -162.24,-51.9453 -13.36,10.3789 -15.34,31.6523 -18.31,45.0117 -11.38,0 -11.38,0 -11.38,0 l 3.96,-67.7656 c 0,0 48.97,-20.7813 99.43,-20.7813 88.54,0.496094 132.57,59.8555 132.57,114.27 0,119.699 -186,86.558 -185.5,177.578 0.5,65.789 79.15,82.605 137.02,49.953 14.34,-6.922 20.77,-43.524 20.77,-43.524 l 10.89,0 -2.48,64.305 0,0"
         style="fill:#ffffff;fill-opacity:1;fill-rule:nonzero;stroke:none"
         id="path18"
         inkscape:connector-curvature="0" /><path
         d="m 1462.18,251.781 4.95,56.387 c 0,0 102.39,-1.484 125.15,-1.484 22.75,0 127.12,1.484 127.12,1.484 l 2.47,-56.387 c 0,0 1.98,0 -7.91,0 -7.92,34.133 -18.3,39.571 -66.28,39.571 -32.65,0 -33.64,0 -33.64,0 l 0,-232.4926 c 0,-36.1055 0.99,-41.0469 33.64,-44.0156 0,-8.9063 0,-8.4063 0,-8.4063 0,0 -32.65,1.48438 -55.4,1.48438 -22.76,0 -55.9,-1.48438 -55.9,-1.48438 0,0 0,-0.5 0,8.4063 33.14,2.9687 34.13,8.4101 34.13,44.0156 l 0,232.4926 -34.13,0 c -47.98,0 -57.87,-5.438 -66.78,-39.571 -9.39,0 -7.42,0 -7.42,0 l 0,0"
         style="fill:#ffffff;fill-opacity:1;fill-rule:nonzero;stroke:none"
         id="path20"
         inkscape:connector-curvature="0" /><path
         d="m 2228.39,309.652 c 0,0 62.33,-0.984 92.01,-0.984 30.66,0 85.57,0.984 93.49,0.984 0.49,-9.89 4.94,-40.066 5.93,-48.968 l -6.92,-1.977 c -10.88,28.191 -21.27,40.555 -116.24,33.633 0,-0.492 0,-120.199 0,-119.703 88.04,-0.496 99.92,-2.473 102.39,30.172 l 7.91,0 c -1.97,-29.188 -2.97,-46.996 -1.97,-75.668 l -7.92,0 c -1.48,31.148 -12.86,29.168 -100.41,29.168 l 0,-129.0902 c 83.59,-5.4493 118.71,-2.4844 131.57,38.5742 l 8.42,-2.9727 C 2432.69,47.9805 2421.8,7.41016 2421.8,7.41016 c 0,0 -104.37,1.49609 -122.67,1.49609 -29.68,0 -70.74,-1.49609 -70.74,-1.49609 l 0,7.93364 c 24.24,3.457 27.7,3.9414 28.69,43.0234 l 0,198.8558 c -0.49,40.562 -9.39,41.55 -28.69,44.515 l 0,7.914"
         style="fill:#ffffff;fill-opacity:1;fill-rule:nonzero;stroke:none"
         id="path22"
         inkscape:connector-curvature="0" /><path
         d="m 2569.21,371.984 c 0,0 35.61,-1.492 60.84,-1.492 25.24,0 60.34,1.492 60.34,1.492 l 0,-9.402 c -16.32,-4.945 -36.1,-1.484 -36.1,-61.336 l 0,-154.832 c 0,-61.8124 14.84,-75.6796 14.84,-75.6796 0,0 22.25,-43.0313 84.09,-43.0313 55.9,0 78.65,42.5391 78.65,42.5391 0,0 12.85,12.3672 13.85,72.7188 0,-1.484 0,157.785 0,157.785 -1,55.402 -5.94,54.91 -45.02,61.836 l 0,9.402 c 0,0 21.77,-1.492 56.89,-1.492 26.7,0 48.98,1.492 48.98,1.492 0,0 0,-9.898 0,-9.402 -22.77,-4.945 -36.61,-7.914 -36.12,-59.852 l 0,-173.621 c 0.5,-60.3473 -30.67,-87.0699 -30.67,-87.0699 0,0 -34.13,-40.54691 -107.34,-40.54691 -77.15,0 -110.32,50.94141 -110.32,50.94141 0,0 -19.76,20.293 -19.76,93.4964 l 0,154.816 c 0,55.402 -7.43,57.879 -33.15,61.836 l 0,9.402"
         style="fill:#ffffff;fill-opacity:1;fill-rule:nonzero;stroke:none"
         id="path24"
         inkscape:connector-curvature="0" /><path
         d="m 2914.47,308.168 c 0,0 17.81,-0.984 37.61,-0.984 20.27,0 28.69,0.984 28.69,0.984 l 206.26,-233.9688 0,183.0238 c 0,34.625 -6.92,40.066 -36.11,43.523 l 0,7.422 c 0,0 24.72,-1.484 44.51,-1.484 20.28,0 42.53,1.484 42.53,1.484 l 0,-7.422 c -23.73,-7.91 -30.15,-9.394 -30.15,-43.031 l 0,-256.22281 -15.35,1.47656 -214.67,243.86325 0,-186.9765 c 0,-28.1953 3.94,-40.0703 34.13,-45.0117 l 0,-7.43364 c 0,0 -24.25,1.49609 -45.01,1.49609 -18.81,0 -43.05,-1.49609 -43.05,-1.49609 l 0,7.43364 c 29.19,4.9414 34.13,16.8164 34.13,45.0117 l 0,197.3675 c 0,32.644 -22.25,38.086 -43.52,43.523 l 0,7.422"
         style="fill:#ffffff;fill-opacity:1;fill-rule:nonzero;stroke:none"
         id="path26"
         inkscape:connector-curvature="0" /><path
         d="m 4778.31,307.672 c 0,0 27.21,-0.988 47.98,-0.988 20.78,0 49.96,0.988 49.96,0.988 l 0,-7.91 c -18.78,-5.442 -29.67,-6.438 -16.82,-27.207 l 63.82,-103.871 60.34,103.379 c 7.42,15.335 11.37,24.23 -18.29,28.683 l 0,6.926 c 0,0 20.27,-0.988 39.57,-0.988 17.31,0 35.13,0.988 35.13,0.988 l 0,-6.926 c -19.3,-4.453 -19.81,-9.394 -32.67,-28.191 l -77.65,-120.2 0.99,-92.9917 c 0,-40.5625 10.38,-39.082 34.63,-44.5195 l 0,-7.43364 c 0,0 -31.17,1.49609 -53.93,1.49609 -22.75,0 -54.89,-1.49609 -54.89,-1.49609 l 0,7.43364 c 27.69,5.4375 31.15,3.4687 32.14,44.0156 l 0.5,93.4956 -76.68,119.211 c -18.29,23.743 -16.82,24.239 -34.13,28.196 l 0,7.91"
         style="fill:#ffffff;fill-opacity:1;fill-rule:nonzero;stroke:none"
         id="path28"
         inkscape:connector-curvature="0" /><path
         d="m 571.813,309.652 c 0,0 28.199,-0.496 52.429,-0.496 23.746,0 52.438,0.496 52.438,0.496 0,0 0,0.5 0,-7.914 -22.262,-2.476 -31.16,-10.883 -25.723,-28.199 l 86.07,-207.2499 74.2,207.2499 c 5.437,21.27 0.492,25.723 -29.684,28.199 0,8.903 0,7.914 0,7.914 0,0 22.754,-0.496 41.555,-0.496 19.289,0 44.515,0.496 44.515,0.496 0,0 0,0.5 0,-7.914 -21.269,-2.476 -25.226,-10.883 -32.152,-27.699 l 0,0 L 731.09,1.98438 l -10.879,0 L 648.48,174.121 576.266,1.98438 l -8.411,0 L 457.551,274.039 c -7.918,17.809 -10.395,20.77 -35.617,27.699 0,8.903 -0.493,7.914 -0.493,7.914 0,0 27.7,-0.496 51.442,-0.496 24.234,0 53.426,0.496 53.426,0.496 0,0 0,0.5 0,-7.914 -24.239,-2.476 -31.164,-10.883 -25.235,-28.687 L 583.688,66.2891 638.59,197.367 607.926,273.539 c -10.391,21.27 -11.875,22.754 -36.113,28.199 0,8.903 0,7.914 0,7.914 l 0,0"
         style="fill:#ffffff;fill-opacity:1;fill-rule:nonzero;stroke:none"
         id="path30"
         inkscape:connector-curvature="0" /><path
         d="m 1947.93,251.781 4.95,56.387 c 0,0 102.39,-1.484 125.14,-1.484 22.76,0 127.13,1.484 127.13,1.484 l 2.47,-56.387 c 0,0 1.98,0 -7.91,0 -7.92,34.133 -18.31,39.571 -66.29,39.571 -32.64,0 -33.63,0 -33.63,0 l 0,-232.4926 c 0,-36.1055 0.99,-41.0469 33.63,-44.0156 0,-8.9063 0,-8.4063 0,-8.4063 0,0 -32.64,1.48438 -55.4,1.48438 -22.75,0 -55.9,-1.48438 -55.9,-1.48438 0,0 0,-0.5 0,8.4063 33.15,2.9687 34.13,8.4101 34.13,44.0156 l 0,232.4926 -34.13,0 c -47.97,0 -57.87,-5.438 -66.77,-39.571 -9.4,0 -7.42,0 -7.42,0 l 0,0"
         style="fill:#ffffff;fill-opacity:1;fill-rule:nonzero;stroke:none"
         id="path32"
         inkscape:connector-curvature="0" /><path
         d="m 4429.59,210.23 0,-104.371 c 0,-86.0738 0.48,-86.0738 -28.19,-91.0152 0,-7.91802 0,-7.91802 0,-7.91802 0,0 28.19,1.98047 49.45,1.98047 21.76,0 49.47,-1.98047 49.47,-1.98047 0,0 0,0 0,7.91802 -28.69,4.9414 -28.69,4.9414 -28.69,91.0152 l 0,104.371 c 0,85.575 0,85.575 28.69,90.024 0,7.914 0,7.914 0,7.914 0,0 -27.71,-0.984 -49.47,-0.984 -21.26,0 -49.45,0.984 -49.45,0.984 0,0 0,0 0,-7.914 29.16,-4.449 28.19,-4.449 28.19,-90.024 l 0,0"
         style="fill:#ffffff;fill-opacity:1;fill-rule:nonzero;stroke:none"
         id="path34"
         inkscape:connector-curvature="0" /><path
         d="m 3299.31,210.23 0,-104.371 c 0,-86.0738 0.51,-86.0738 -28.18,-91.0152 0,-7.91802 0,-7.91802 0,-7.91802 0,0 28.18,1.98047 49.45,1.98047 21.76,0 49.45,-1.98047 49.45,-1.98047 0,0 0,0 0,7.91802 -28.68,4.9414 -28.68,4.9414 -28.68,91.0152 l 0,104.371 c 0,85.575 0,85.575 28.68,90.024 0,7.914 0,7.914 0,7.914 0,0 -27.69,-0.984 -49.45,-0.984 -21.27,0 -49.45,0.984 -49.45,0.984 0,0 0,0 0,-7.914 29.18,-4.449 28.18,-4.449 28.18,-90.024 l 0,0"
         style="fill:#ffffff;fill-opacity:1;fill-rule:nonzero;stroke:none"
         id="path36"
         inkscape:connector-curvature="0" /><path
         d="m 3682.18,308.168 c 0,0 62.33,-0.984 91.99,-0.984 30.67,0 85.57,0.984 93.49,0.984 0.5,-9.891 4.95,-40.066 5.94,-48.969 l -6.93,-1.976 c -10.87,28.191 -21.26,40.562 -116.23,33.632 0,-0.492 0,-120.203 0,-119.703 88.03,-0.5 99.91,-2.468 102.39,30.172 l 7.91,0 c -1.98,-29.183 -2.97,-47 -1.98,-75.679 l -7.92,0 c -1.49,31.164 -12.86,29.191 -100.4,29.191 l 0,-129.1133 c 83.59,-5.4414 118.72,-2.4688 131.58,38.5859 l 8.4,-2.9688 c -3.96,-14.8359 -14.84,-55.4023 -14.84,-55.4023 0,0 -104.37,1.47266 -122.67,1.47266 -29.69,0 -70.73,-1.47266 -70.73,-1.47266 l 0,7.9219 c 24.22,3.457 27.7,3.9531 28.69,43.0273 l 0,198.8513 c -0.5,40.555 -5.93,43.524 -28.69,44.516 l 0,7.914"
         style="fill:#ffffff;fill-opacity:1;fill-rule:nonzero;stroke:none"
         id="path38"
         inkscape:connector-curvature="0" /><path
         d="m 4513.18,251.781 4.94,56.387 c 0,0 102.4,-1.484 125.16,-1.484 22.75,0 127.13,1.484 127.13,1.484 l 2.46,-56.387 c 0,0 1.98,0 -7.91,0 -7.91,34.133 -18.3,39.571 -66.29,39.571 -32.64,0 -33.64,0 -33.64,0 l 0,-232.4926 c 0,-36.1055 1,-41.0469 33.64,-44.0156 0,-8.9063 0,-8.4063 0,-8.4063 0,0 -32.64,1.48438 -55.39,1.48438 -22.76,0 -55.9,-1.48438 -55.9,-1.48438 0,0 0,-0.5 0,8.4063 33.14,2.9687 34.13,8.4101 34.13,44.0156 l 0,232.4926 -34.13,0 c -47.99,0 -57.87,-5.438 -66.78,-39.571 -9.4,0 -7.42,0 -7.42,0 l 0,0"
         style="fill:#ffffff;fill-opacity:1;fill-rule:nonzero;stroke:none"
         id="path40"
         inkscape:connector-curvature="0" /><path
         d="m 4351.42,301.246 c 0,0 -38.08,11.871 -68.75,11.871 -58.36,0 -103.38,-41.551 -103.38,-85.082 0,-97.937 151.86,-70.738 151.86,-146.9139 0,-60.8398 -81.12,-84.08985 -133.56,-42.5352 -10.88,8.418 -12.37,26.211 -14.83,37.1055 -9.41,0 -9.41,0 -9.41,0 l 3.47,-55.9062 c 0,0 40.07,-17.31254 81.62,-17.31254 72.71,0.49609 109.31,49.46874 109.31,94.48044 0,98.4379 -153.34,71.2309 -152.85,145.9219 0.51,53.918 65.31,67.766 112.78,41.055 11.87,-5.438 16.84,-35.614 16.84,-35.614 l 9.38,0 -2.48,52.93 0,0"
         style="fill:#ffffff;fill-opacity:1;fill-rule:nonzero;stroke:none"
         id="path42"
         inkscape:connector-curvature="0" /><path
         d="m 398.188,158.289 c 0,97.449 -52.43,140.484 -109.317,140.484 -57.379,0 -109.808,-43.035 -109.808,-140.484 0,-98.4335 52.429,-140.9726 109.808,-140.9726 56.887,0 109.317,42.5391 109.317,140.9726 l 0,0 z m -267.602,0 c 0,88.055 72.223,155.32 158.285,155.32 85.078,0 158.285,-67.265 158.285,-155.32 C 446.672,69.2461 373.949,2.47266 288.871,2.47266 202.809,2.47266 130.586,69.2461 130.586,158.289 l 0,0"
         style="fill:#ffffff;fill-opacity:1;fill-rule:evenodd;stroke:none"
         id="path44"
         inkscape:connector-curvature="0" /><path
         d="m 984.352,153.34 -39.579,111.305 -44.019,-111.305 83.598,0 0,0 z m -90.028,156.312 c 0,0 19.289,-0.496 38.086,-0.496 19.293,0 36.113,0.496 36.113,0.496 L 1070.91,42.0391 c 9.4,-21.7578 21.77,-25.2149 36.12,-27.6914 0,-8.90629 0,-7.9102 0,-7.9102 l 0,0 c 0,0 -28.2,1.48438 -51.94,1.48438 -23.75,0 -52.93,-1.48438 -52.93,-1.48438 0,0 0,-0.99609 0,7.9102 18.8,2.9687 31.16,3.4648 21.76,27.6914 l -32.15,89.0469 -99.426,0 -35.117,-89.0469 c -9.399,-24.2266 9.89,-25.2149 25.722,-27.6914 0,-8.90629 0,-7.9102 0,-7.9102 0,0 -20.777,1.48438 -40.066,1.48438 -18.801,0 -40.563,-1.48438 -40.563,-1.48438 0,0 -0.496,-1.97266 -0.496,7.4219 16.821,6.4219 19.293,6.4219 28.688,28.1797 l 98.929,231.4999 c 7.918,21.77 -12.363,23.254 -35.117,28.691 0,8.907 0,7.422 0,7.422 l 0,0"
         style="fill:#ffffff;fill-opacity:1;fill-rule:evenodd;stroke:none"
         id="path46"
         inkscape:connector-curvature="0" /><path
         d="m 1864.82,151.863 -39.57,111.297 -44.02,-111.297 83.59,0 0,0 z m -90.02,156.305 c 0,0 19.29,-0.496 38.09,-0.496 19.29,0 36.1,0.496 36.1,0.496 l 102.4,-267.6016 c 9.4,-21.7656 21.76,-25.2226 36.11,-27.707 0,-8.90627 0,-7.91018 0,-7.91018 l 0,0 c 0,0 -28.19,1.48828 -51.94,1.48828 -23.74,0 -52.92,-1.48828 -52.92,-1.48828 0,0 0,-0.99609 0,7.91018 18.79,2.9687 31.16,3.457 21.76,27.707 l -32.15,89.0356 -99.43,0 -35.12,-89.0356 c -9.39,-24.25 9.89,-25.2226 25.72,-27.707 0,-8.90627 0,-7.91018 0,-7.91018 0,0 -20.77,1.48828 -40.07,1.48828 -18.79,0 -40.55,-1.48828 -40.55,-1.48828 0,0 -0.5,-1.98047 -0.5,7.42188 16.82,6.4297 19.29,6.4297 28.69,28.1953 l 98.93,231.4966 c 7.91,21.761 -12.37,23.246 -35.12,28.683 0,8.906 0,7.422 0,7.422 l 0,0"
         style="fill:#ffffff;fill-opacity:1;fill-rule:evenodd;stroke:none"
         id="path48"
         inkscape:connector-curvature="0" /><path
         d="m 3976.48,286.402 c 31.66,12.86 95.47,9.403 96.95,-57.871 1.5,-68.265 -69.25,-70.726 -96.95,-63.812 l 0,121.683 z m -71.21,19.789 c 0,0 26.21,-0.992 38.08,-0.992 14.34,0 44.02,3.469 65.79,3.469 50.44,-0.5 109.31,-20.285 109.31,-79.152 0,-56.391 -50.45,-62.805 -69.26,-71.227 21.29,-17.305 54.43,-69.246 66.8,-89.0429 31.15,-49.4609 30.66,-52.4219 57.85,-56.3867 l 0,-6.9219 c 0,0 -18.28,0.98828 -28.19,0.98828 -8.9,0 -26.71,-0.48828 -33.63,-0.48828 -20.28,22.7539 -41.07,60.8398 -56.89,85.0781 -23.75,36.5974 -45.51,61.8244 -78.65,58.8554 0,0 0,-91.5116 0,-90.5155 1.99,-41.543 6.44,-42.5391 28.69,-46.9961 l 0,-6.4219 c 0,0 -23.24,0 -50.94,0.48828 -16.32,0 -48.96,-0.98828 -48.96,-0.98828 l 0,6.9219 c 20.76,2.4844 28.67,9.3984 28.67,46.9961 l 0,197.3675 c 0,32.644 -8.9,39.57 -28.67,42.039 l 0,6.929"
         style="fill:#ffffff;fill-opacity:1;fill-rule:evenodd;stroke:none"
         id="path50"
         inkscape:connector-curvature="0" /></g></g></svg>